:SAMPLES-PER-SECOND 30
:FULLY-SPECIFIED
:DEGREES
68
root  -5.72807 38.1977 -7.56948 130.85 -76.9864 -143.233
RightUpLeg  0.812572 -14.7426 -6.79472
RightLeg  33.7832 11.6558 8.04028
RightFoot  -11.7844 -0.120687 7.20803
RightToes  0.000482159 0.542163 -0.142577
Spine  26.8408 6.78713 28.6531
Spine1  0.689014 16.4843 -15.9014
HEad  -23.2328 -9.93788 -5.41904
LeftShoulder1  4.82497 -10.7548 -27.7556
LeftArm  -41.7871 28.2865 3.33564
LeftForeArm  21.2879 -38.1073 -7.50557
LeftHand  -0.25398 0.0180481 5.50724
RightShoulder  2.92951 8.76413 17.3306
RightArm  -29.4651 18.6213 19.524
RightForeArm  27.1357 75.0032 46.7883
RightHand  -5.70273 13.7845 -34.0097
LeftUpLeg  -63.3259 9.78994 -3.30659
LeftLeg  102.999 -5.2073 17.7841
LeftFoot  -15.3546 0.207514 3.28254
LeftToes  1.06248e-005 4.65856e-005 -8.18499e-006
69
root  -8.63959 40.5669 -7.88533 92.3295 -82.4026 -105.935
RightUpLeg  13.9029 -21.9717 -12.7978
RightLeg  24.027 12.9597 6.05363
RightFoot  1.8864 -2.12418 17.2657
RightToes  0.000482159 0.542163 -0.142577
Spine  26.1883 10.1202 23.8337
Spine1  -1.90675 17.8271 -16.2979
HEad  -16.4332 -20.0478 1.71467
LeftShoulder1  3.51268 -9.45485 -20.6563
LeftArm  -47.2747 18.9773 9.68751
LeftForeArm  20.9928 -49.074 -11.3456
LeftHand  -0.25398 0.0180481 5.50724
RightShoulder  2.86278 8.733 16.7533
RightArm  -20.2216 11.1567 14.0465
RightForeArm  5.98638 68.0281 29.7772
RightHand  -5.95401 14.4092 -34.3078
LeftUpLeg  -67.7461 9.44593 -10.0782
LeftLeg  84.5935 0.70877 16.5344
LeftFoot  -14.2403 0.151352 2.3914
LeftToes  1.06248e-005 4.65856e-005 -8.18499e-006
70
root  -11.3146 42.5722 -7.95985 34.2915 -76.4079 -51.307
RightUpLeg  18.4567 -22.7824 -11.4751
RightLeg  31.2275 8.82406 5.55485
RightFoot  10.2728 -5.69109 30.2186
RightToes  0.000482159 0.542163 -0.142577
Spine  25.4485 10.3789 20.2602
Spine1  -1.6701 15.9456 -10.1199
HEad  -9.89815 -24.6386 4.63862
LeftShoulder1  2.30387 -7.72555 -13.5388
LeftArm  -56.4688 13.2563 12.5162
LeftForeArm  25.2773 -58.0489 -16.0046
LeftHand  -0.25398 0.0180481 5.50724
RightShoulder  2.9517 8.75304 17.4993
RightArm  -7.88547 5.16623 11.1916
RightForeArm  -4.72193 56.0337 17.4614
RightHand  -5.30374 13.3371 -32.4883
LeftUpLeg  -64.5808 12.0794 -17.2962
LeftLeg  66.0982 5.178 13.3627
LeftFoot  -10.7006 0.0623324 0.425413
LeftToes  1.06248e-005 4.65856e-005 -8.18499e-006
71
root  -13.8722 44.1981 -7.70702 24.333 -66.4378 -46.1149
RightUpLeg  11.4497 -22.8907 -7.90872
RightLeg  59.4235 5.89161 10.4986
RightFoot  8.59845 -5.95734 33.2645
RightToes  0.000482159 0.542163 -0.142577
Spine  25.1315 8.9451 18.1748
Spine1  0.61466 12.4019 -0.253768
HEad  -5.53987 -25.23 5.42057
LeftShoulder1  1.34763 -5.73052 -6.96541
LeftArm  -63.6997 13.0368 15.2737
LeftForeArm  32.746 -65.4295 -21.581
LeftHand  -0.25398 0.0180481 5.50724
RightShoulder  2.92173 8.85399 17.019
RightArm  1.91768 -0.75166 10.0882
RightForeArm  -10.4009 40.4183 10.0311
RightHand  -5.82275 15.1297 -32.5061
LeftUpLeg  -56.5234 18.037 -22.9417
LeftLeg  51.7175 7.37302 10.3229
LeftFoot  -7.38675 0.0816695 -1.1157
LeftToes  1.06248e-005 4.65856e-005 -8.18499e-006
72
root  -16.2679 45.0168 -7.56248 16.6943 -57.6267 -41.5215
RightUpLeg  -2.89616 -20.9028 -6.74888
RightLeg  92.202 -0.757769 15.3734
RightFoot  9.77436 -5.01765 27.0115
RightToes  0.000482159 0.542163 -0.142577
Spine  26.1427 7.40575 13.7479
Spine1  1.7645 8.10423 9.74893
HEad  -2.98081 -24.8538 6.46442
LeftShoulder1  0.588141 -3.05515 -0.490023
LeftArm  -63.8608 14.3668 18.0851
LeftForeArm  28.7834 -66.8702 -24.0839
LeftHand  -0.25398 0.0180481 5.50724
RightShoulder  2.93721 8.77777 17.3309
RightArm  9.66132 -9.53997 6.82605
RightForeArm  -18.4301 26.3147 6.78714
RightHand  -6.35213 16.412 -33.3309
LeftUpLeg  -48.8627 22.3989 -25.7302
LeftLeg  43.6469 8.77229 9.22737
LeftFoot  -4.95271 0.151231 -2.19278
LeftToes  1.06248e-005 4.65856e-005 -8.18499e-006
73
root  -18.8742 45.3692 -7.74643 11.7193 -49.1905 -38.3536
RightUpLeg  -17.901 -10.8791 -9.20517
RightLeg  110.046 -7.14155 18.2242
RightFoot  14.8295 -5.72185 24.5942
RightToes  0.000482159 0.542163 -0.142577
Spine  29.0833 5.9069 8.42034
Spine1  0.0197615 4.10941 17.3038
HEad  -0.859294 -24.7266 8.67863
LeftShoulder1  0.0758221 0.512293 7.13621
LeftArm  -58.8883 13.5783 19.0413
LeftForeArm  12.3393 -60.6069 -19.5849
LeftHand  -0.25398 0.0180481 5.50724
RightShoulder  2.70179 7.21028 18.748
RightArm  12.9043 -20.4911 1.35439
RightForeArm  -23.0674 17.1341 7.53304
RightHand  -5.79632 14.9969 -32.5883
LeftUpLeg  -42.4873 23.5126 -23.4645
LeftLeg  41.7836 10.3545 10.1652
LeftFoot  -3.41054 0.221891 -2.89959
LeftToes  1.06248e-005 4.65856e-005 -8.18499e-006
74
root  -21.8998 45.8309 -7.88869 9.16342 -41.5068 -38.658
RightUpLeg  -29.4195 1.18496 -17.6232
RightLeg  104.614 -7.03526 23.5939
RightFoot  16.6242 -7.37894 29.5709
RightToes  0.000482159 0.542163 -0.142577
Spine  32.9878 3.33304 5.50465
Spine1  -1.77629 0.762068 21.0571
HEad  1.24429 -23.5459 12.5222
LeftShoulder1  0.00965999 3.89344 15.0607
LeftArm  -54.4242 12.4764 17.0881
LeftForeArm  3.80125 -48.246 -12.3352
LeftHand  -0.25398 0.0180481 5.50724
RightShoulder  1.88448 3.99262 18.555
RightArm  10.4466 -31.2393 -2.68542
RightForeArm  -20.5726 11.2708 9.69654
RightHand  -5.79022 14.8422 -32.7754
LeftUpLeg  -36.0533 24.2453 -16.0275
LeftLeg  42.6274 10.7488 10.8054
LeftFoot  -0.99047 0.235948 -2.5968
LeftToes  1.06248e-005 4.65856e-005 -8.18499e-006
75
root  -24.6867 46.1276 -7.5388 8.59019 -36.8318 -41.4976
RightUpLeg  -36.4362 2.54491 -24.867
RightLeg  81.0107 2.39866 20.5176
RightFoot  16.0405 -7.16609 29.1108
RightToes  0.000482159 0.542163 -0.142577
Spine  35.8205 -0.408207 6.23462
Spine1  -0.918425 -2.65798 22.0813
HEad  4.51407 -20.0914 15.3284
LeftShoulder1  0.154796 5.33521 20.0308
LeftArm  -47.6229 13.1554 13.4626
LeftForeArm  -1.00706 -34.5588 -7.77733
LeftHand  -0.25398 0.0180481 5.50724
RightShoulder  0.930567 0.557371 16.1418
RightArm  11.2517 -40.6491 -4.77372
RightForeArm  -23.3003 8.35001 9.9302
RightHand  -6.5285 16.2328 -34.4486
LeftUpLeg  -29.2605 27.825 -7.20494
LeftLeg  39.7279 9.80943 9.05661
LeftFoot  3.97847 0.160895 -1.43577
LeftToes  1.06248e-005 4.65856e-005 -8.18499e-006
76
root  -26.8172 46.007 -6.98979 11.9164 -37.0868 -46.9519
RightUpLeg  -39.7111 -3.6346 -21.9363
RightLeg  43.2084 9.59144 8.67367
RightFoot  13.5193 -4.8796 22.4087
RightToes  0.000482159 0.542163 -0.142577
Spine  36.9527 -3.79492 9.31354
Spine1  0.647247 -5.58241 22.5452
HEad  11.0957 -13.2333 16.4785
LeftShoulder1  0.112939 4.76634 19.7982
LeftArm  -36.5944 15.4942 10.3145
LeftForeArm  -4.99292 -23.0975 -4.84759
LeftHand  -0.25398 0.0180481 5.50724
RightShoulder  0.284207 -2.04724 12.3082
RightArm  14.3727 -47.0566 -8.83451
RightForeArm  -28.5432 6.94658 9.81669
RightHand  -7.22405 17.3461 -36.1232
LeftUpLeg  -23.625 36.0774 1.18378
LeftLeg  30.9247 9.12193 6.19977
LeftFoot  11.534 0.399333 -2.19458
LeftToes  1.06248e-005 4.65856e-005 -8.18499e-006
77
root  -30.0882 45.4124 -6.82397 14.7264 -40.4912 -49.327
RightUpLeg  -41.3846 -14.5131 -13.0961
RightLeg  2.71063 5.84485 3.25303
RightFoot  11.9339 -6.89084 33.1072
RightToes  0.000482159 0.542163 -0.142577
Spine  37.1928 -5.02573 3.81701
Spine1  0.507383 -7.34351 20.3911
HEad  20.1453 -2.00353 16.6062
LeftShoulder1  0.0201296 4.0477 15.5264
LeftArm  -21.56 20.0505 7.36236
LeftForeArm  -14.6729 -14.944 -2.40374
LeftHand  -0.25398 0.0180481 5.50724
RightShoulder  -0.017304 -3.60147 7.32144
RightArm  19.1438 -48.5754 -15.5832
RightForeArm  -30.0167 5.52003 9.8643
RightHand  -7.46918 17.4102 -37.157
LeftUpLeg  -18.9288 45.4698 9.16656
LeftLeg  24.3195 6.95364 3.83182
LeftFoot  18.7077 1.72848 -6.81268
LeftToes  1.06248e-005 4.65856e-005 -8.18499e-006
78
root  -34.31 44.4301 -6.56436 12.9849 -44.0905 -49.1324
RightUpLeg  -46.3499 -19.4022 -5.74161
RightLeg  -11.1076 -9.35628 14.9857
RightFoot  9.9117 -9.28055 47.1522
RightToes  0.000482159 0.542163 -0.142577
Spine  37.7004 -6.71555 -6.29657
Spine1  -0.456429 -9.30821 17.4445
HEad  27.528 12.4803 16.7586
LeftShoulder1  -0.00147115 3.60334 9.35655
LeftArm  -15.492 28.1352 4.5332
LeftForeArm  -19.2481 -11.4591 -1.58392
LeftHand  -0.25398 0.0180481 5.50724
RightShoulder  -0.016001 -3.60742 2.80202
RightArm  23.2179 -46.0026 -21.7824
RightForeArm  -29.5771 3.33032 10.4691
RightHand  -7.62252 17.2119 -38.1539
LeftUpLeg  -7.0138 43.3932 21.3883
LeftLeg  18.6494 6.69095 0.414239
LeftFoot  24.0724 3.08688 -10.318
LeftToes  1.06248e-005 4.65856e-005 -8.18499e-006
79
root  -36.8765 42.5998 -6.7171 9.97054 -47.8943 -50.5493
RightUpLeg  -61.5126 -26.8929 18.7528
RightLeg  4.67724 0.836326 14.9116
RightFoot  9.88988 -8.84531 45.2515
RightToes  0.000482159 0.542163 -0.142577
Spine  42.1448 -7.2377 -9.80694
Spine1  2.39943 -13.4904 15.8633
HEad  30.3258 24.038 18.2091
LeftShoulder1  0.221695 1.04761 0.546594
LeftArm  -18.4833 34.1951 1.57167
LeftForeArm  -12.9844 -11.2625 0.549726
LeftHand  -0.25398 0.0180481 5.50724
RightShoulder  0.126448 -2.02901 0.255212
RightArm  27.3983 -44.9634 -27.5768
RightForeArm  -34.0604 1.01043 11.2401
RightHand  -8.68565 18.7787 -40.3877
LeftUpLeg  6.0586 23.8602 28.92
LeftLeg  9.04519 16.3813 -2.3276
LeftFoot  25.3097 1.53683 -4.92145
LeftToes  1.06248e-005 4.65856e-005 -8.18499e-006
80
root  -39.9754 40.6698 -6.85089 1.55264 -43.9435 -48.2762
RightUpLeg  -77.3382 -28.9885 34.6788
RightLeg  33.7216 17.6666 10.2369
RightFoot  9.83448 -8.58127 44.1128
RightToes  0.000482159 0.542163 -0.142577
Spine  47.063 -8.07327 -12.1239
Spine1  4.57702 -16.7785 13.7995
HEad  27.1682 26.0922 20.1771
LeftShoulder1  1.43537 -3.89866 -11.8069
LeftArm  -21.1243 29.4591 -3.73217
LeftForeArm  -16.7253 -11.8932 -0.3652
LeftHand  -0.25398 0.0180481 5.50724
RightShoulder  0.279599 -0.23299 -0.037692
RightArm  34.1883 -51.1132 -34.6577
RightForeArm  -41.6895 0.244059 10.7178
RightHand  -10.1104 20.9257 -42.9795
LeftUpLeg  11.2172 21.3724 29.9536
LeftLeg  12.1309 5.87763 -0.946979
LeftFoot  12.6901 -1.84224 9.4015
LeftToes  1.06248e-005 4.65856e-005 -8.18499e-006
81
root  -43.8492 39.1427 -6.52222 -5.6987 -34.2314 -46.161
RightUpLeg  -76.1358 -27.2795 20.9446
RightLeg  50.2998 18.8436 22.1711
RightFoot  12.9181 -10.5365 46.8771
RightToes  0.000482159 0.542163 -0.142577
Spine  49.973 -8.60708 -13.4894
Spine1  4.16802 -17.0061 13.2749
HEad  17.8369 19.9499 22.1056
LeftShoulder1  3.82971 -9.06729 -24.3311
LeftArm  -25.2673 15.6401 -7.65319
LeftForeArm  -14.5652 -13.7195 -1.96451
LeftHand  -0.25398 0.0180481 5.50724
RightShoulder  0.453898 0.261075 4.4289
RightArm  40.7789 -61.9543 -37.8216
RightForeArm  -45.8838 0.506819 8.72445
RightHand  -9.49833 19.8611 -42.1047
LeftUpLeg  8.2503 15.3095 30.3684
LeftLeg  27.2113 4.47927 3.67375
LeftFoot  -7.14118 -0.950663 22.5348
LeftToes  1.06248e-005 4.65856e-005 -8.18499e-006
82
root  -46.6835 37.8656 -6.57453 -5.97021 -27.7824 -46.8249
RightUpLeg  -73.818 -23.4871 17.0474
RightLeg  52.4137 19.8111 25.1847
RightFoot  15.5385 -11.862 47.5638
RightToes  0.000482159 0.542163 -0.142577
Spine  51.5792 -7.41783 -12.784
Spine1  4.35337 -15.8727 13.8836
HEad  6.88006 13.2189 23.9312
LeftShoulder1  6.03985 -12.1108 -32.7912
LeftArm  -30.7662 4.62518 -12.1875
LeftForeArm  -5.6008 -18.8346 -3.61701
LeftHand  -0.25398 0.0180481 5.50724
RightShoulder  0.616535 -0.523052 13.825
RightArm  25.2206 -69.7339 -13.1488
RightForeArm  -45.0526 1.28399 8.17359
RightHand  -6.05176 13.9947 -35.0737
LeftUpLeg  -0.977127 2.92301 29.3179
LeftLeg  43.3782 13.1691 13.2144
LeftFoot  -18.829 1.60433 23.1289
LeftToes  1.06248e-005 4.65856e-005 -8.18499e-006
